<mxfile host="Electron" modified="2023-06-19T16:06:46.819Z" agent="Mozilla/5.0 (Windows NT 10.0; Win64; x64) AppleWebKit/537.36 (KHTML, like Gecko) draw.io/21.1.2 Chrome/106.0.5249.199 Electron/21.4.3 Safari/537.36" etag="cxjV0KZfVLTRzwR2ZTp4" version="21.1.2" type="device">
  <diagram name="Page-1" id="mgn3GtlQVugNJlKbESgo">
    <mxGraphModel dx="2058" dy="1198" grid="1" gridSize="10" guides="1" tooltips="1" connect="1" arrows="1" fold="1" page="1" pageScale="1" pageWidth="850" pageHeight="1100" math="0" shadow="0">
      <root>
        <mxCell id="0" />
        <mxCell id="1" parent="0" />
        <mxCell id="sra6zfXHtXcgS8yWGH6P-1" value="&lt;font style=&quot;font-size: 15px;&quot;&gt;p = 2&lt;sup&gt;256&lt;/sup&gt; − 2&lt;sup&gt;32&lt;/sup&gt; − 2&lt;sup&gt;9&lt;/sup&gt; − 2&lt;sup&gt;8&lt;/sup&gt; − 2&lt;sup&gt;7&lt;/sup&gt; − 2&lt;sup&gt;6&lt;/sup&gt;&amp;nbsp;− 2&lt;sup&gt;4&lt;/sup&gt; – 1&lt;br&gt;&amp;nbsp; &amp;nbsp;= 0xFFFFFFFFFFFFFFFFFFFFFFFFFFFFFFFFFFFFFFFFFFFFFFFFFFFFFFFEFFFFFC2F&lt;br&gt;a = 0&lt;br&gt;b = 7&lt;br&gt;G: xG = 0x79BE667EF9DCBBAC55A06295CE870B07029BFCDB2DCE28D959F2815B16F81798,&lt;br&gt;&amp;nbsp; &amp;nbsp; &amp;nbsp;yG = 0x483ADA7726A3C4655DA4FBFC0E1108A8FD17B448A68554199C47D08FFB10D4B8&lt;br&gt;n = 0xFFFFFFFFFFFFFFFFFFFFFFFFFFFFFFFEBAAEDCE6AF48A03BBFD25E8CD0364141&amp;nbsp;&lt;/font&gt;" style="rounded=0;whiteSpace=wrap;html=1;align=left;fillColor=#bac8d3;strokeColor=#23445d;" vertex="1" parent="1">
          <mxGeometry x="110" y="90" width="670" height="170" as="geometry" />
        </mxCell>
      </root>
    </mxGraphModel>
  </diagram>
</mxfile>
